<svg xmlns="http://www.w3.org/2000/svg" x="0px" y="0px"
width="100" height="100"
viewBox="0 0 172 172"
style=" fill:#000000;"><g fill="none" fill-rule="nonzero" stroke="none" stroke-width="1" stroke-linecap="butt" stroke-linejoin="miter" stroke-miterlimit="10" stroke-dasharray="" stroke-dashoffset="0" font-family="none" font-weight="none" font-size="none" text-anchor="none" style="mix-blend-mode: normal"><path d="M0,172v-172h172v172z" fill="none"></path><g fill="#f1c40f"><path d="M29.24,36.12c-0.94989,0.00009 -1.71991,0.77011 -1.72,1.72v17.2c0.00009,0.94989 0.77011,1.71991 1.72,1.72h113.52c0.94989,-0.00009 1.71991,-0.77011 1.72,-1.72v-17.2c-0.00009,-0.94989 -0.77011,-1.71991 -1.72,-1.72zM30.96,39.56h110.08v13.76h-110.08v-3.44h95.46c0.31015,0.00439 0.59863,-0.15856 0.75498,-0.42645c0.15635,-0.26789 0.15635,-0.59921 0,-0.8671c-0.15635,-0.26789 -0.44484,-0.43084 -0.75498,-0.42645h-95.46zM131.58,48.16c-0.31015,-0.00439 -0.59863,0.15856 -0.75498,0.42645c-0.15635,0.26789 -0.15635,0.59921 0,0.8671c0.15635,0.26789 0.44484,0.43084 0.75498,0.42645h3.44c0.31015,0.00439 0.59863,-0.15856 0.75498,-0.42645c0.15635,-0.26789 0.15635,-0.59921 0,-0.8671c-0.15635,-0.26789 -0.44484,-0.43084 -0.75498,-0.42645zM29.24,75.68c-0.94989,0.00009 -1.71991,0.77011 -1.72,1.72v17.2c0.00009,0.94989 0.77011,1.71991 1.72,1.72h113.52c0.94989,-0.00009 1.71991,-0.77011 1.72,-1.72v-17.2c-0.00009,-0.94989 -0.77011,-1.71991 -1.72,-1.72zM30.96,79.12h110.08v13.76h-110.08zM38.7,87.72c-0.31015,-0.00439 -0.59863,0.15856 -0.75498,0.42645c-0.15635,0.26789 -0.15635,0.59921 0,0.8671c0.15635,0.26789 0.44484,0.43084 0.75498,0.42645h77.4c0.31015,0.00439 0.59863,-0.15856 0.75498,-0.42645c0.15635,-0.26789 0.15635,-0.59921 0,-0.8671c-0.15635,-0.26789 -0.44484,-0.43084 -0.75498,-0.42645zM121.26,87.72c-0.31015,-0.00439 -0.59863,0.15856 -0.75498,0.42645c-0.15635,0.26789 -0.15635,0.59921 0,0.8671c0.15635,0.26789 0.44484,0.43084 0.75498,0.42645h5.16c0.31015,0.00439 0.59863,-0.15856 0.75498,-0.42645c0.15635,-0.26789 0.15635,-0.59921 0,-0.8671c-0.15635,-0.26789 -0.44484,-0.43084 -0.75498,-0.42645zM131.58,87.72c-0.31015,-0.00439 -0.59863,0.15856 -0.75498,0.42645c-0.15635,0.26789 -0.15635,0.59921 0,0.8671c0.15635,0.26789 0.44484,0.43084 0.75498,0.42645h3.44c0.31015,0.00439 0.59863,-0.15856 0.75498,-0.42645c0.15635,-0.26789 0.15635,-0.59921 0,-0.8671c-0.15635,-0.26789 -0.44484,-0.43084 -0.75498,-0.42645zM29.24,115.24c-0.94989,0.00009 -1.71991,0.77011 -1.72,1.72v17.2c0.00009,0.94989 0.77011,1.71991 1.72,1.72h113.52c0.94989,-0.00009 1.71991,-0.77011 1.72,-1.72v-17.2c-0.00009,-0.94989 -0.77011,-1.71991 -1.72,-1.72zM30.96,118.68h110.08v8.6h-95.46c-0.31015,-0.00439 -0.59863,0.15856 -0.75498,0.42645c-0.15635,0.26789 -0.15635,0.59921 0,0.8671c0.15635,0.26789 0.44484,0.43084 0.75498,0.42645h95.46v3.44h-110.08zM36.98,127.28c-0.31015,-0.00439 -0.59863,0.15856 -0.75498,0.42645c-0.15635,0.26789 -0.15635,0.59921 0,0.8671c0.15635,0.26789 0.44484,0.43084 0.75498,0.42645h3.44c0.31015,0.00439 0.59863,-0.15856 0.75498,-0.42645c0.15635,-0.26789 0.15635,-0.59921 0,-0.8671c-0.15635,-0.26789 -0.44484,-0.43084 -0.75498,-0.42645z"></path></g></g></svg>