<svg width="323" height="132" viewBox="0 0 323 132" fill="none" xmlns="http://www.w3.org/2000/svg">
<path d="M6.79595 15.0238H23.072C27.298 15.0238 31.0291 15.8805 34.2653 17.5937C37.5015 19.2689 40.0143 21.6294 41.8037 24.6752C43.5931 27.6829 44.4878 31.1285 44.4878 35.0119C44.4878 38.8953 43.5931 42.3599 41.8037 45.4057C40.0143 48.4134 37.5015 50.7739 34.2653 52.4872C31.0291 54.1624 27.298 55 23.072 55H6.79595V15.0238ZM22.8435 51.345C26.3462 51.345 29.411 50.6597 32.0381 49.2891C34.6651 47.8804 36.7019 45.9578 38.1487 43.5211C39.5955 41.0464 40.3188 38.21 40.3188 35.0119C40.3188 31.8138 39.5955 28.9964 38.1487 26.5598C36.7019 24.0851 34.6651 22.1624 32.0381 20.7918C29.411 19.3831 26.3462 18.6788 22.8435 18.6788H11.022V51.345H22.8435ZM0.742415 32.956H22.9006V36.3254H0.742415V32.956ZM85.3648 51.345V55H57.096V15.0238H84.5082V18.6788H61.322V32.8989H81.9954V36.4967H61.322V51.345H85.3648ZM76.3987 11.7686L70.8592 8.3992L65.3196 11.7686H61.4362L68.8604 6.40039H72.858L80.2821 11.7686H76.3987ZM71.2018 0.746613H76.1703L83.0234 6.97148H79.4826L71.2018 0.746613ZM128.888 55.3427C125.804 55.3427 123.044 54.5241 120.607 52.887C118.208 51.2499 116.324 48.9084 114.953 45.8626C113.621 42.7787 112.954 39.1618 112.954 35.0119C112.954 30.862 113.621 27.2641 114.953 24.2183C116.324 21.1345 118.208 18.774 120.607 17.1368C123.044 15.4997 125.804 14.6812 128.888 14.6812C131.972 14.6812 134.713 15.4997 137.111 17.1368C139.548 18.774 141.452 21.1345 142.822 24.2183C144.193 27.2641 144.878 30.862 144.878 35.0119C144.878 39.1618 144.193 42.7787 142.822 45.8626C141.452 48.9084 139.548 51.2499 137.111 52.887C134.713 54.5241 131.972 55.3427 128.888 55.3427ZM128.888 51.5735C131.21 51.5735 133.247 50.9262 134.998 49.6318C136.788 48.3373 138.177 46.4527 139.167 43.978C140.157 41.5033 140.652 38.5146 140.652 35.0119C140.652 31.5092 140.157 28.5205 139.167 26.0458C138.177 23.5711 136.788 21.6865 134.998 20.3921C133.247 19.0976 131.21 18.4503 128.888 18.4503C126.565 18.4503 124.509 19.0976 122.72 20.3921C120.969 21.6865 119.598 23.5711 118.608 26.0458C117.618 28.5205 117.123 31.5092 117.123 35.0119C117.123 38.5146 117.618 41.5033 118.608 43.978C119.598 46.4527 120.969 48.3373 122.72 49.6318C124.509 50.9262 126.565 51.5735 128.888 51.5735ZM164.859 15.0238V55H160.747V18.6788H151.324V15.0238H164.859ZM3.2552 91.0238H16.7329V131H3.2552V91.0238ZM62.039 131L61.9248 112.782L53.2442 127.402H47.3049L38.6244 113.41V131H26.346V91.0238H37.4251L50.4459 112.325L63.1241 91.0238H74.2032L74.3174 131H62.039ZM104.632 131.914C100.406 131.914 96.5987 131.038 93.2102 129.287C89.8218 127.497 87.1567 125.023 85.215 121.863C83.3114 118.664 82.3596 115.048 82.3596 111.012C82.3596 106.976 83.3114 103.378 85.215 100.218C87.1567 97.0202 89.8218 94.5455 93.2102 92.7942C96.5987 91.0048 100.406 90.1101 104.632 90.1101C108.515 90.1101 111.98 90.7954 115.026 92.166C118.072 93.5366 120.584 95.5164 122.564 98.1053L114.055 105.701C111.58 102.579 108.668 101.018 105.317 101.018C102.5 101.018 100.235 101.932 98.5214 103.759C96.8081 105.548 95.9515 107.966 95.9515 111.012C95.9515 114.058 96.8081 116.494 98.5214 118.322C100.235 120.111 102.5 121.006 105.317 121.006C108.668 121.006 111.58 119.445 114.055 116.323L122.564 123.919C120.584 126.507 118.072 128.487 115.026 129.858C111.98 131.228 108.515 131.914 104.632 131.914ZM169.073 91.0238C172.766 91.0238 175.983 91.633 178.724 92.8513C181.465 94.0696 183.578 95.821 185.063 98.1053C186.548 100.39 187.29 103.055 187.29 106.101C187.29 109.146 186.548 111.811 185.063 114.096C183.578 116.38 181.465 118.131 178.724 119.35C175.983 120.568 172.766 121.177 169.073 121.177H163.305V131H149.827V91.0238H169.073ZM168.216 110.783C170.044 110.783 171.414 110.384 172.328 109.584C173.242 108.747 173.699 107.585 173.699 106.101C173.699 104.616 173.242 103.474 172.328 102.674C171.414 101.836 170.044 101.418 168.216 101.418H163.305V110.783H168.216ZM194.836 91.0238H208.313V120.549H226.36V131H194.836V91.0238ZM261.006 124.033H245.815L243.131 131H229.425L246.9 91.0238H260.149L277.625 131H263.69L261.006 124.033ZM257.294 114.324L253.411 104.273L249.527 114.324H257.294ZM322.306 91.0238V131H311.227L296.036 112.839V131H282.901V91.0238H293.98L309.171 109.184V91.0238H322.306Z" fill="#FFCF00"/>
</svg>
