<svg width="392" height="182" viewBox="0 0 392 182" fill="none" xmlns="http://www.w3.org/2000/svg">
<path d="M215.527 15.0238H231.803C236.029 15.0238 239.76 15.8805 242.997 17.5937C246.233 19.2689 248.745 21.6294 250.535 24.6752C252.324 27.6829 253.219 31.1285 253.219 35.0119C253.219 38.8953 252.324 42.3599 250.535 45.4057C248.745 48.4134 246.233 50.7739 242.997 52.4872C239.76 54.1624 236.029 55 231.803 55H215.527V15.0238ZM231.575 51.345C235.077 51.345 238.142 50.6597 240.769 49.2891C243.396 47.8804 245.433 45.9578 246.88 43.5211C248.327 41.0464 249.05 38.21 249.05 35.0119C249.05 31.8138 248.327 28.9964 246.88 26.5598C245.433 24.0851 243.396 22.1624 240.769 20.7918C238.142 19.3831 235.077 18.6788 231.575 18.6788H219.753V51.345H231.575ZM209.474 32.956H231.632V36.3254H209.474V32.956ZM294.096 51.345V55H265.827V15.0238H293.239V18.6788H270.053V32.8989H290.727V36.4967H270.053V51.345H294.096ZM285.13 11.7686L279.59 8.3992L274.051 11.7686H270.167L277.592 6.40039H281.589L289.013 11.7686H285.13ZM279.933 0.746613H284.902L291.755 6.97148H288.214L279.933 0.746613ZM337.619 55.3427C334.535 55.3427 331.775 54.5241 329.338 52.887C326.94 51.2499 325.055 48.9084 323.684 45.8626C322.352 42.7787 321.686 39.1618 321.686 35.0119C321.686 30.862 322.352 27.2641 323.684 24.2183C325.055 21.1345 326.94 18.774 329.338 17.1368C331.775 15.4997 334.535 14.6812 337.619 14.6812C340.703 14.6812 343.444 15.4997 345.843 17.1368C348.279 18.774 350.183 21.1345 351.553 24.2183C352.924 27.2641 353.609 30.862 353.609 35.0119C353.609 39.1618 352.924 42.7787 351.553 45.8626C350.183 48.9084 348.279 51.2499 345.843 52.887C343.444 54.5241 340.703 55.3427 337.619 55.3427ZM337.619 51.5735C339.941 51.5735 341.978 50.9262 343.73 49.6318C345.519 48.3373 346.909 46.4527 347.899 43.978C348.888 41.5033 349.383 38.5146 349.383 35.0119C349.383 31.5092 348.888 28.5205 347.899 26.0458C346.909 23.5711 345.519 21.6865 343.73 20.3921C341.978 19.0976 339.941 18.4503 337.619 18.4503C335.297 18.4503 333.241 19.0976 331.451 20.3921C329.7 21.6865 328.329 23.5711 327.339 26.0458C326.349 28.5205 325.855 31.5092 325.855 35.0119C325.855 38.5146 326.349 41.5033 327.339 43.978C328.329 46.4527 329.7 48.3373 331.451 49.6318C333.241 50.9262 335.297 51.5735 337.619 51.5735ZM389.809 51.345V55H361.769V52.0874L378.388 35.8114C380.482 33.7555 381.89 31.9851 382.614 30.5003C383.375 28.9774 383.756 27.4545 383.756 25.9316C383.756 23.5711 382.937 21.7436 381.3 20.4492C379.701 19.1166 377.398 18.4503 374.39 18.4503C369.707 18.4503 366.071 19.9352 363.482 22.9048L360.57 20.3921C362.131 18.5646 364.11 17.1559 366.509 16.166C368.946 15.1761 371.687 14.6812 374.733 14.6812C378.806 14.6812 382.024 15.652 384.384 17.5937C386.783 19.4973 387.982 22.1244 387.982 25.4747C387.982 27.5307 387.525 29.5104 386.611 31.4141C385.698 33.3177 383.965 35.5069 381.414 37.9816L367.822 51.345H389.809ZM91.3564 91.0238C95.0494 91.0238 98.2665 91.633 101.008 92.8513C103.749 94.0696 105.862 95.821 107.347 98.1053C108.832 100.39 109.574 103.055 109.574 106.101C109.574 109.146 108.832 111.811 107.347 114.096C105.862 116.38 103.749 118.131 101.008 119.35C98.2665 120.568 95.0494 121.177 91.3564 121.177H85.5884V131H72.1107V91.0238H91.3564ZM90.4997 110.783C92.3272 110.783 93.6978 110.384 94.6116 109.584C95.5253 108.747 95.9822 107.585 95.9822 106.101C95.9822 104.616 95.5253 103.474 94.6116 102.674C93.6978 101.836 92.3272 101.418 90.4997 101.418H85.5884V110.783H90.4997ZM134.252 120.949H130.597V131H117.119V91.0238H136.365C140.058 91.0238 143.275 91.633 146.016 92.8513C148.758 94.0696 150.871 95.821 152.355 98.1053C153.84 100.39 154.583 103.055 154.583 106.101C154.583 108.956 153.935 111.45 152.641 113.582C151.346 115.714 149.481 117.408 147.044 118.664L155.439 131H141.048L134.252 120.949ZM140.991 106.101C140.991 104.616 140.534 103.474 139.62 102.674C138.706 101.836 137.336 101.418 135.508 101.418H130.597V110.783H135.508C137.336 110.783 138.706 110.384 139.62 109.584C140.534 108.747 140.991 107.585 140.991 106.101ZM183.756 131.914C179.454 131.914 175.589 131.019 172.163 129.23C168.736 127.44 166.052 124.966 164.111 121.805C162.169 118.607 161.198 115.01 161.198 111.012C161.198 107.014 162.169 103.435 164.111 100.275C166.052 97.0774 168.736 94.5836 172.163 92.7942C175.589 91.0048 179.454 90.1101 183.756 90.1101C188.058 90.1101 191.922 91.0048 195.349 92.7942C198.776 94.5836 201.46 97.0774 203.401 100.275C205.343 103.435 206.314 107.014 206.314 111.012C206.314 115.01 205.343 118.607 203.401 121.805C201.46 124.966 198.776 127.44 195.349 129.23C191.922 131.019 188.058 131.914 183.756 131.914ZM183.756 121.006C185.431 121.006 186.935 120.606 188.268 119.807C189.638 118.969 190.723 117.808 191.523 116.323C192.322 114.8 192.722 113.03 192.722 111.012C192.722 108.994 192.322 107.243 191.523 105.758C190.723 104.235 189.638 103.074 188.268 102.274C186.935 101.437 185.431 101.018 183.756 101.018C182.081 101.018 180.558 101.437 179.187 102.274C177.855 103.074 176.789 104.235 175.989 105.758C175.19 107.243 174.79 108.994 174.79 111.012C174.79 113.03 175.19 114.8 175.989 116.323C176.789 117.808 177.855 118.969 179.187 119.807C180.558 120.606 182.081 121.006 183.756 121.006ZM214.331 91.0238H234.033C238.488 91.0238 242.409 91.8424 245.798 93.4795C249.224 95.0785 251.87 97.3819 253.736 100.39C255.639 103.397 256.591 106.938 256.591 111.012C256.591 115.086 255.639 118.626 253.736 121.634C251.87 124.642 249.224 126.964 245.798 128.601C242.409 130.2 238.488 131 234.033 131H214.331V91.0238ZM233.462 120.492C236.356 120.492 238.659 119.673 240.372 118.036C242.124 116.361 242.999 114.02 242.999 111.012C242.999 108.004 242.124 105.682 240.372 104.045C238.659 102.369 236.356 101.532 233.462 101.532H227.808V120.492H233.462ZM283.769 131.914C277.639 131.914 272.861 130.258 269.434 126.945C266.008 123.633 264.295 118.988 264.295 113.011V91.0238H277.772V112.611C277.772 115.543 278.286 117.675 279.314 119.007C280.38 120.34 281.903 121.006 283.883 121.006C285.863 121.006 287.367 120.34 288.395 119.007C289.461 117.675 289.994 115.543 289.994 112.611V91.0238H303.243V113.011C303.243 118.988 301.53 123.633 298.103 126.945C294.677 130.258 289.898 131.914 283.769 131.914ZM333.219 131.914C328.993 131.914 325.186 131.038 321.798 129.287C318.409 127.497 315.744 125.023 313.802 121.863C311.899 118.664 310.947 115.048 310.947 111.012C310.947 106.976 311.899 103.378 313.802 100.218C315.744 97.0202 318.409 94.5455 321.798 92.7942C325.186 91.0048 328.993 90.1101 333.219 90.1101C337.103 90.1101 340.567 90.7954 343.613 92.166C346.659 93.5366 349.172 95.5164 351.151 98.1053L342.642 105.701C340.168 102.579 337.255 101.018 333.905 101.018C331.087 101.018 328.822 101.932 327.109 103.759C325.395 105.548 324.539 107.966 324.539 111.012C324.539 114.058 325.395 116.494 327.109 118.322C328.822 120.111 331.087 121.006 333.905 121.006C337.255 121.006 340.168 119.445 342.642 116.323L351.151 123.919C349.172 126.507 346.659 128.487 343.613 129.858C340.567 131.228 337.103 131.914 333.219 131.914ZM366.57 101.475H354.862V91.0238H391.755V101.475H380.047V131H366.57V101.475ZM0.442093 141.024H13.9198V170.549H31.9662V181H0.442093V141.024ZM66.6126 174.033H51.4216L48.7375 181H35.0314L52.5067 141.024H65.7559L83.2312 181H69.2967L66.6126 174.033ZM62.9005 164.324L59.0171 154.273L55.1337 164.324H62.9005ZM106.802 181.914C100.672 181.914 95.8943 180.258 92.4678 176.945C89.0412 173.633 87.328 168.988 87.328 163.011V141.024H100.806V162.611C100.806 165.543 101.32 167.675 102.348 169.007C103.414 170.34 104.937 171.006 106.916 171.006C108.896 171.006 110.4 170.34 111.428 169.007C112.494 167.675 113.027 165.543 113.027 162.611V141.024H126.276V163.011C126.276 168.988 124.563 173.633 121.136 176.945C117.71 180.258 112.932 181.914 106.802 181.914ZM174.984 141.024V181H163.905L148.714 162.839V181H135.579V141.024H146.658L161.849 159.184V141.024H174.984ZM205.277 181.914C201.051 181.914 197.243 181.038 193.855 179.287C190.466 177.497 187.801 175.023 185.86 171.863C183.956 168.664 183.004 165.048 183.004 161.012C183.004 156.976 183.956 153.378 185.86 150.218C187.801 147.02 190.466 144.546 193.855 142.794C197.243 141.005 201.051 140.11 205.277 140.11C209.16 140.11 212.625 140.795 215.67 142.166C218.716 143.537 221.229 145.516 223.209 148.105L214.7 155.701C212.225 152.579 209.312 151.018 205.962 151.018C203.145 151.018 200.879 151.932 199.166 153.759C197.453 155.548 196.596 157.966 196.596 161.012C196.596 164.058 197.453 166.494 199.166 168.322C200.879 170.111 203.145 171.006 205.962 171.006C209.312 171.006 212.225 169.445 214.7 166.323L223.209 173.919C221.229 176.507 218.716 178.487 215.67 179.858C212.625 181.228 209.16 181.914 205.277 181.914ZM269.63 141.024V181H256.153V166.266H243.703V181H230.225V141.024H243.703V155.187H256.153V141.024H269.63ZM279.249 141.024H292.727V181H279.249V141.024ZM341.745 141.024V181H330.666L315.475 162.839V181H302.34V141.024H313.419L328.61 159.184V141.024H341.745ZM377.805 159.927H389.513V176.831C387.152 178.468 384.411 179.725 381.289 180.6C378.167 181.476 375.102 181.914 372.094 181.914C367.83 181.914 364.004 181.038 360.616 179.287C357.227 177.497 354.562 175.023 352.62 171.863C350.717 168.664 349.765 165.048 349.765 161.012C349.765 156.976 350.717 153.378 352.62 150.218C354.562 147.02 357.246 144.546 360.673 142.794C364.137 141.005 368.04 140.11 372.38 140.11C376.301 140.11 379.804 140.776 382.888 142.109C386.01 143.403 388.599 145.307 390.655 147.82L382.031 155.415C379.519 152.484 376.53 151.018 373.065 151.018C370.096 151.018 367.735 151.913 365.984 153.702C364.232 155.491 363.357 157.928 363.357 161.012C363.357 164.02 364.213 166.437 365.927 168.265C367.678 170.092 370 171.006 372.894 171.006C374.607 171.006 376.244 170.682 377.805 170.035V159.927Z" fill="#FFCF00"/>
</svg>
