<?xml version="1.0" encoding="utf-8"?>
<svg xmlns="http://www.w3.org/2000/svg" style="margin: auto; background: none; display: block; shape-rendering: auto;" width="274" height="152" preserveAspectRatio="xMidYMid">
<style type="text/css">
  text {
    text-anchor: middle; font-size: 31px; opacity: 0;
  }
</style>
<g style="transform-origin: 137px 76px; transform: scale(0.469697);">
<g transform="translate(137,76)">
  <g transform="translate(-8,0)"><g class="path" style="transform: scale(1); transform-origin: -252.02px -5.6056px; animation: 1s linear -0.634737s infinite normal forwards running beat-be12bee2-37e1-4701-8017-54b34aba52dc;"><path d="M36.83 0L36.83-35.31L24.82 0L20.79 0L8.84-35.31L8.84 0L5.15 0L5.15-46.20L8.84-46.20L22.77-5.68L36.83-46.20L40.52-46.20L40.52 0L36.83 0" fill="#ffcf00" stroke="none" stroke-width="none" transform="translate(-274.85498046875,17.494398498535165)" style="fill: rgb(255, 207, 0);"></path></g><g class="path" style="transform: scale(1); transform-origin: -213.9px 1.0644px; animation: 1s linear -0.599474s infinite normal forwards running beat-be12bee2-37e1-4701-8017-54b34aba52dc;"><path d="M73.66 0L73.66 0Q66.53 0.73 63.36 0.73L63.36 0.73L63.36 0.73Q56.43 0.73 52.34-1.85L52.34-1.85L52.34-1.85Q48.25-4.42 48.25-11.15L48.25-11.15L48.25-16.63L48.25-16.63Q48.25-23.17 52.80-25.41L52.80-25.41L52.80-25.41Q54.98-26.53 58.34-26.53L58.34-26.53L58.34-26.53Q61.45-26.53 64.61-25.51L64.61-25.51L64.61-25.51Q67.78-24.49 69.96-22.84L69.96-22.84L69.96-22.84Q69.96-26.47 67.85-28.61L67.85-28.61L67.85-28.61Q65.74-30.76 59.73-30.76L59.73-30.76L59.93-33.59L59.93-33.59Q66.26-33.59 69.27-31.58L69.27-31.58L69.27-31.58Q72.27-29.57 72.96-26.80L72.96-26.80L72.96-26.80Q73.66-24.02 73.66-19.67L73.66-19.67L73.66 0zM69.96-20.00L69.96-20.00Q67.25-21.25 64.19-22.18L64.19-22.18L64.19-22.18Q61.12-23.10 58.54-23.10L58.54-23.10L58.54-23.10Q51.88-23.10 51.88-16.43L51.88-16.43L51.88-10.69L51.88-10.69Q51.88-6.40 54.85-4.46L54.85-4.46L54.85-4.46Q57.82-2.51 63.29-2.51L63.29-2.51L63.29-2.51Q66.13-2.51 69.96-3.04L69.96-3.04L69.96-20.00" fill="#ffcf00" stroke="none" stroke-width="none" transform="translate(-274.85498046875,17.494398498535165)" style="fill: rgb(255, 207, 0);"></path></g><g class="path" style="transform: scale(1); transform-origin: -186.545px 0.664398px; animation: 1s linear -0.564211s infinite normal forwards running beat-be12bee2-37e1-4701-8017-54b34aba52dc;"><path d="M80.06 0L80.06-33.07L83.75-33.07L83.56-30.76L83.56-30.76Q86.66-33.66 91.67-33.66L91.67-33.66L91.67-33.66Q93.46-33.66 96.56-33.07L96.56-33.07L95.57-29.70L95.57-29.70Q93.46-30.36 91.15-30.36L91.15-30.36L91.15-30.36Q88.11-30.36 85.93-29.24L85.93-29.24L85.93-29.24Q83.75-28.12 83.75-25.87L83.75-25.87L83.75 0L80.06 0" fill="#ffcf00" stroke="none" stroke-width="none" transform="translate(-274.85498046875,17.494398498535165)" style="fill: rgb(255, 207, 0);"></path></g><g class="path" style="transform: scale(1); transform-origin: -160.315px -5.6056px; animation: 1s linear -0.528947s infinite normal forwards running beat-be12bee2-37e1-4701-8017-54b34aba52dc;"><path d="M122.23 0L109.56-20.92L106.13-17.95L106.13 0L102.43 0L102.43-46.20L106.13-46.20L106.13-22.11L119.33-34.32L121.97-31.75L112.20-23.23L112.20-23.23Q116.69-15.77 126.65 0L126.65 0L122.23 0" fill="#ffcf00" stroke="none" stroke-width="none" transform="translate(-274.85498046875,17.494398498535165)" style="fill: rgb(255, 207, 0);"></path></g><g class="path" style="transform: scale(1); transform-origin: -134.015px 1.0594px; animation: 1s linear -0.493684s infinite normal forwards running beat-be12bee2-37e1-4701-8017-54b34aba52dc;"><path d="M151.07-2.31L151.07-2.31Q148.70-0.79 145.66 0L145.66 0L145.66 0Q142.63 0.79 139.59 0.79L139.59 0.79L139.59 0.79Q134.71 0.79 131.84-1.62L131.84-1.62L131.84-1.62Q128.96-4.03 128.96-8.84L128.96-8.84L128.96-22.37L128.96-22.37Q128.96-27.72 132.30-30.69L132.30-30.69L132.30-30.69Q135.63-33.66 141.11-33.66L141.11-33.66L141.11-33.66Q146.59-33.66 149.66-30.72L149.66-30.72L149.66-30.72Q152.72-27.79 152.72-22.57L152.72-22.57L152.72-13.99L132.66-12.87L132.66-8.84L132.66-8.84Q132.66-5.68 134.71-4.09L134.71-4.09L134.71-4.09Q136.75-2.51 140.05-2.51L140.05-2.51L140.05-2.51Q144.67-2.51 149.62-5.15L149.62-5.15L151.07-2.31zM149.03-23.03L149.03-23.03Q149.03-27.13 146.45-28.81L146.45-28.81L146.45-28.81Q143.88-30.49 141.04-30.49L141.04-30.49L141.04-30.49Q137.41-30.49 135.04-28.51L135.04-28.51L135.04-28.51Q132.66-26.53 132.66-22.31L132.66-22.31L132.66-16.50L149.03-17.29L149.03-23.03" fill="#ffcf00" stroke="none" stroke-width="none" transform="translate(-274.85498046875,17.494398498535165)" style="fill: rgb(255, 207, 0);"></path></g><g class="path" style="transform: scale(1); transform-origin: -110.845px -5.1756px; animation: 1s linear -0.458421s infinite normal forwards running beat-be12bee2-37e1-4701-8017-54b34aba52dc;"><path d="M165.20 0.86L165.20 0.86Q161.50-0.20 159.85-2.51L159.85-2.51L159.85-2.51Q158.20-4.82 158.20-8.71L158.20-8.71L158.20-46.20L161.90-46.20L161.90-33.07L169.82-33.07L168.23-29.57L161.90-29.57L161.90-8.71L161.90-8.71Q161.90-3.43 166.25-1.98L166.25-1.98L165.20 0.86" fill="#ffcf00" stroke="none" stroke-width="none" transform="translate(-274.85498046875,17.494398498535165)" style="fill: rgb(255, 207, 0);"></path></g><g class="path" style="transform: scale(1); transform-origin: -96.16px -27.1556px; animation: 1s linear -0.423158s infinite normal forwards running beat-be12bee2-37e1-4701-8017-54b34aba52dc;"><path d="M178.73-42.44L178.73-42.44Q177.87-42.44 177.18-43.13L177.18-43.13L177.18-43.13Q176.48-43.82 176.48-44.68L176.48-44.68L176.48-44.68Q176.48-45.54 177.14-46.20L177.14-46.20L177.14-46.20Q177.80-46.86 178.73-46.86L178.73-46.86L178.73-46.86Q179.65-46.86 180.28-46.23L180.28-46.23L180.28-46.23Q180.91-45.61 180.91-44.68L180.91-44.68L180.91-44.68Q180.91-43.76 180.25-43.10L180.25-43.10L180.25-43.10Q179.59-42.44 178.73-42.44L178.73-42.44" fill="#ffcf00" stroke="none" stroke-width="none" transform="translate(-274.85498046875,17.494398498535165)" style="fill: rgb(255, 207, 0);"></path></g><g class="path" style="transform: scale(1); transform-origin: -96.195px 0.959398px; animation: 1s linear -0.387895s infinite normal forwards running beat-be12bee2-37e1-4701-8017-54b34aba52dc;"><path d="M176.81 0L176.81-33.07L180.51-33.07L180.51 0L176.81 0" fill="#ffcf00" stroke="none" stroke-width="none" transform="translate(-274.85498046875,17.494398498535165)" style="fill: rgb(255, 207, 0);"></path></g><g class="path" style="transform: scale(1); transform-origin: -72.27px 0.699398px; animation: 1s linear -0.352632s infinite normal forwards running beat-be12bee2-37e1-4701-8017-54b34aba52dc;"><path d="M211.13 0L211.13-22.64L211.13-22.64Q211.13-26.66 208.79-28.48L208.79-28.48L208.79-28.48Q206.45-30.29 202.75-30.29L202.75-30.29L202.75-30.29Q200.51-30.29 198.20-29.67L198.20-29.67L198.20-29.67Q195.89-29.04 194.11-28.05L194.11-28.05L194.11 0L190.41 0L190.41-33.07L194.11-33.07L193.84-30.82L193.84-30.82Q195.43-32.21 197.87-32.90L197.87-32.90L197.87-32.90Q200.31-33.59 202.95-33.59L202.95-33.59L202.95-33.59Q206.58-33.59 209.15-32.41L209.15-32.41L209.15-32.41Q211.79-31.22 213.28-28.84L213.28-28.84L213.28-28.84Q214.76-26.47 214.76-22.84L214.76-22.84L214.76 0L211.13 0" fill="#ffcf00" stroke="none" stroke-width="none" transform="translate(-274.85498046875,17.494398498535165)" style="fill: rgb(255, 207, 0);"></path></g><g class="path" style="transform: scale(1); transform-origin: -40.785px 7.5944px; animation: 1s linear -0.317368s infinite normal forwards running beat-be12bee2-37e1-4701-8017-54b34aba52dc;"><path d="M238.46 11.02L238.46 11.02Q242.81 9.37 242.81 4.16L242.81 4.16L242.81-4.03L242.81-4.03Q240.04 0.79 233.90 0.79L233.90 0.79L233.90 0.79Q228.10 0.79 224.86-2.38L224.86-2.38L224.86-2.38Q221.63-5.54 221.63-11.62L221.63-11.62L221.63-21.45L221.63-21.45Q221.63-27.26 225.03-30.46L225.03-30.46L225.03-30.46Q228.43-33.66 234.17-33.66L234.17-33.66L234.17-33.66Q240.31-33.66 243.08-29.24L243.08-29.24L242.81-33.07L246.51-33.07L246.51 4.22L246.51 4.22Q246.51 8.18 244.86 10.43L244.86 10.43L244.86 10.43Q243.21 12.67 239.45 13.86L239.45 13.86L238.46 11.02zM242.81-22.18L242.81-22.18Q242.81-26.27 240.17-28.28L240.17-28.28L240.17-28.28Q237.53-30.29 233.90-30.29L233.90-30.29L233.90-30.29Q230.41-30.29 227.87-28.15L227.87-28.15L227.87-28.15Q225.32-26.00 225.32-21.12L225.32-21.12L225.32-11.02L225.32-11.02Q225.32-6.86 227.67-4.75L227.67-4.75L227.67-4.75Q230.01-2.64 233.90-2.64L233.90-2.64L233.90-2.64Q237.60-2.64 240.21-4.92L240.21-4.92L240.21-4.92Q242.81-7.19 242.81-11.42L242.81-11.42L242.81-22.18" fill="#ffcf00" stroke="none" stroke-width="none" transform="translate(-274.85498046875,17.494398498535165)" style="fill: rgb(255, 207, 0);"></path></g><g class="path" style="transform: scale(1); transform-origin: 9.70003px -5.6056px; animation: 1s linear -0.282105s infinite normal forwards running beat-be12bee2-37e1-4701-8017-54b34aba52dc;"><path d="M297.26 0L291.98-16.17L276.94-16.17L271.79 0L267.89 0L282.68-46.20L286.18-46.20L301.22 0L297.26 0zM284.39-40.46L277.99-19.80L290.99-19.80L284.39-40.46" fill="#ffcf00" stroke="none" stroke-width="none" transform="translate(-274.85498046875,17.494398498535165)" style="fill: rgb(255, 207, 0);"></path></g><g class="path" style="transform: scale(1); transform-origin: 39.305px 0.664398px; animation: 1s linear -0.246842s infinite normal forwards running beat-be12bee2-37e1-4701-8017-54b34aba52dc;"><path d="M305.91 0L305.91-33.07L309.61-33.07L309.41-30.76L309.41-30.76Q312.51-33.66 317.53-33.66L317.53-33.66L317.53-33.66Q319.31-33.66 322.41-33.07L322.41-33.07L321.42-29.70L321.42-29.70Q319.31-30.36 317.00-30.36L317.00-30.36L317.00-30.36Q313.96-30.36 311.78-29.24L311.78-29.24L311.78-29.24Q309.61-28.12 309.61-25.87L309.61-25.87L309.61 0L305.91 0" fill="#ffcf00" stroke="none" stroke-width="none" transform="translate(-274.85498046875,17.494398498535165)" style="fill: rgb(255, 207, 0);"></path></g><g class="path" style="transform: scale(1); transform-origin: 63.195px 1.0594px; animation: 1s linear -0.211579s infinite normal forwards running beat-be12bee2-37e1-4701-8017-54b34aba52dc;"><path d="M348.28-2.31L348.28-2.31Q345.91-0.79 342.87 0L342.87 0L342.87 0Q339.83 0.79 336.80 0.79L336.80 0.79L336.80 0.79Q331.91 0.79 329.04-1.62L329.04-1.62L329.04-1.62Q326.17-4.03 326.17-8.84L326.17-8.84L326.17-22.37L326.17-22.37Q326.17-27.72 329.50-30.69L329.50-30.69L329.50-30.69Q332.84-33.66 338.32-33.66L338.32-33.66L338.32-33.66Q343.79-33.66 346.86-30.72L346.86-30.72L346.86-30.72Q349.93-27.79 349.93-22.57L349.93-22.57L349.93-13.99L329.87-12.87L329.87-8.84L329.87-8.84Q329.87-5.68 331.91-4.09L331.91-4.09L331.91-4.09Q333.96-2.51 337.26-2.51L337.26-2.51L337.26-2.51Q341.88-2.51 346.83-5.15L346.83-5.15L348.28-2.31zM346.24-23.03L346.24-23.03Q346.24-27.13 343.66-28.81L343.66-28.81L343.66-28.81Q341.09-30.49 338.25-30.49L338.25-30.49L338.25-30.49Q334.62-30.49 332.24-28.51L332.24-28.51L332.24-28.51Q329.87-26.53 329.87-22.31L329.87-22.31L329.87-16.50L346.24-17.29L346.24-23.03" fill="#ffcf00" stroke="none" stroke-width="none" transform="translate(-274.85498046875,17.494398498535165)" style="fill: rgb(255, 207, 0);"></path></g><g class="path" style="transform: scale(1); transform-origin: 94.05px 0.699398px; animation: 1s linear -0.176316s infinite normal forwards running beat-be12bee2-37e1-4701-8017-54b34aba52dc;"><path d="M377.45 0L377.45-22.64L377.45-22.64Q377.45-26.66 375.11-28.48L375.11-28.48L375.11-28.48Q372.77-30.29 369.07-30.29L369.07-30.29L369.07-30.29Q366.83-30.29 364.52-29.67L364.52-29.67L364.52-29.67Q362.21-29.04 360.43-28.05L360.43-28.05L360.43 0L356.73 0L356.73-33.07L360.43-33.07L360.16-30.82L360.16-30.82Q361.75-32.21 364.19-32.90L364.19-32.90L364.19-32.90Q366.63-33.59 369.27-33.59L369.27-33.59L369.27-33.59Q372.90-33.59 375.47-32.41L375.47-32.41L375.47-32.41Q378.11-31.22 379.60-28.84L379.60-28.84L379.60-28.84Q381.08-26.47 381.08-22.84L381.08-22.84L381.08 0L377.45 0" fill="#ffcf00" stroke="none" stroke-width="none" transform="translate(-274.85498046875,17.494398498535165)" style="fill: rgb(255, 207, 0);"></path></g><g class="path" style="transform: scale(1); transform-origin: 125.8px 1.0644px; animation: 1s linear -0.141053s infinite normal forwards running beat-be12bee2-37e1-4701-8017-54b34aba52dc;"><path d="M413.36 0L413.36 0Q406.23 0.73 403.06 0.73L403.06 0.73L403.06 0.73Q396.13 0.73 392.04-1.85L392.04-1.85L392.04-1.85Q387.95-4.42 387.95-11.15L387.95-11.15L387.95-16.63L387.95-16.63Q387.95-23.17 392.50-25.41L392.50-25.41L392.50-25.41Q394.68-26.53 398.05-26.53L398.05-26.53L398.05-26.53Q401.15-26.53 404.32-25.51L404.32-25.51L404.32-25.51Q407.48-24.49 409.66-22.84L409.66-22.84L409.66-22.84Q409.66-26.47 407.55-28.61L407.55-28.61L407.55-28.61Q405.44-30.76 399.43-30.76L399.43-30.76L399.63-33.59L399.63-33.59Q405.97-33.59 408.97-31.58L408.97-31.58L408.97-31.58Q411.97-29.57 412.67-26.80L412.67-26.80L412.67-26.80Q413.36-24.02 413.36-19.67L413.36-19.67L413.36 0zM409.66-20.00L409.66-20.00Q406.96-21.25 403.89-22.18L403.89-22.18L403.89-22.18Q400.82-23.10 398.24-23.10L398.24-23.10L398.24-23.10Q391.58-23.10 391.58-16.43L391.58-16.43L391.58-10.69L391.58-10.69Q391.58-6.40 394.55-4.46L394.55-4.46L394.55-4.46Q397.52-2.51 403.00-2.51L403.00-2.51L403.00-2.51Q405.83-2.51 409.66-3.04L409.66-3.04L409.66-20.00" fill="#ffcf00" stroke="none" stroke-width="none" transform="translate(-274.85498046875,17.494398498535165)" style="fill: rgb(255, 207, 0);"></path></g><g class="path" style="transform: scale(1); transform-origin: 172.395px -5.9356px; animation: 1s linear -0.105789s infinite normal forwards running beat-be12bee2-37e1-4701-8017-54b34aba52dc;"><path d="M435.67 0L435.67-3.50L452.43-28.91L452.43-28.91Q454.81-32.74 454.81-35.90L454.81-35.90L454.81-35.90Q454.81-39.27 452.56-41.32L452.56-41.32L452.56-41.32Q450.32-43.36 447.35-43.36L447.35-43.36L447.35-43.36Q444.84-43.36 442.86-41.78L442.86-41.78L442.86-41.78Q440.88-40.19 439.96-37.62L439.96-37.62L436.52-38.94L436.52-38.94Q437.78-42.44 440.52-44.65L440.52-44.65L440.52-44.65Q443.26-46.86 447.35-46.86L447.35-46.86L447.35-46.86Q450.58-46.86 453.19-45.47L453.19-45.47L453.19-45.47Q455.80-44.09 457.25-41.65L457.25-41.65L457.25-41.65Q458.70-39.20 458.70-36.17L458.70-36.17L458.70-36.17Q458.70-31.88 455.80-27.26L455.80-27.26L439.96-3.43L458.83-3.43L458.83 0L435.67 0" fill="#ffcf00" stroke="none" stroke-width="none" transform="translate(-274.85498046875,17.494398498535165)" style="fill: rgb(255, 207, 0);"></path></g><g class="path" style="transform: scale(1); transform-origin: 203.575px -5.7706px; animation: 1s linear -0.0705263s infinite normal forwards running beat-be12bee2-37e1-4701-8017-54b34aba52dc;"><path d="M492.29-12.21L492.29-12.21Q492.29-5.54 488.24-2.41L488.24-2.41L488.24-2.41Q484.18 0.73 478.50 0.73L478.50 0.73L478.50 0.73Q474.94 0.73 471.77-0.56L471.77-0.56L471.77-0.56Q468.60-1.85 466.59-4.75L466.59-4.75L466.59-4.75Q464.57-7.66 464.57-12.21L464.57-12.21L464.57-33.46L464.57-33.46Q464.57-40.26 468.30-43.76L468.30-43.76L468.30-43.76Q472.03-47.26 478.57-47.26L478.57-47.26L478.57-47.26Q485.10-47.26 488.70-43.56L488.70-43.56L488.70-43.56Q492.29-39.86 492.29-33.40L492.29-33.40L492.29-12.21zM488.66-34.06L488.66-34.06Q488.66-38.87 485.86-41.32L485.86-41.32L485.86-41.32Q483.05-43.76 478.43-43.76L478.43-43.76L478.43-43.76Q473.81-43.76 471.04-41.32L471.04-41.32L471.04-41.32Q468.27-38.87 468.27-34.06L468.27-34.06L468.27-12.28L468.27-12.28Q468.27-7.59 471.14-5.18L471.14-5.18L471.14-5.18Q474.01-2.77 478.43-2.77L478.43-2.77L478.43-2.77Q482.92-2.77 485.79-5.12L485.79-5.12L485.79-5.12Q488.66-7.46 488.66-12.34L488.66-12.34L488.66-34.06" fill="#ffcf00" stroke="none" stroke-width="none" transform="translate(-274.85498046875,17.494398498535165)" style="fill: rgb(255, 207, 0);"></path></g><g class="path" style="transform: scale(1); transform-origin: 234.96px -5.9356px; animation: 1s linear -0.0352632s infinite normal forwards running beat-be12bee2-37e1-4701-8017-54b34aba52dc;"><path d="M498.23 0L498.23-3.50L515.00-28.91L515.00-28.91Q517.37-32.74 517.37-35.90L517.37-35.90L517.37-35.90Q517.37-39.27 515.13-41.32L515.13-41.32L515.13-41.32Q512.89-43.36 509.92-43.36L509.92-43.36L509.92-43.36Q507.41-43.36 505.43-41.78L505.43-41.78L505.43-41.78Q503.45-40.19 502.52-37.62L502.52-37.62L499.09-38.94L499.09-38.94Q500.35-42.44 503.09-44.65L503.09-44.65L503.09-44.65Q505.82-46.86 509.92-46.86L509.92-46.86L509.92-46.86Q513.15-46.86 515.76-45.47L515.76-45.47L515.76-45.47Q518.36-44.09 519.82-41.65L519.82-41.65L519.82-41.65Q521.27-39.20 521.27-36.17L521.27-36.17L521.27-36.17Q521.27-31.88 518.36-27.26L518.36-27.26L502.52-3.43L521.40-3.43L521.40 0L498.23 0" fill="#ffcf00" stroke="none" stroke-width="none" transform="translate(-274.85498046875,17.494398498535165)" style="fill: rgb(255, 207, 0);"></path></g><g class="path" style="transform: scale(1); transform-origin: 266.145px -5.7706px; animation: 1s linear 0s infinite normal forwards running beat-be12bee2-37e1-4701-8017-54b34aba52dc;"><path d="M554.86-12.21L554.86-12.21Q554.86-5.54 550.80-2.41L550.80-2.41L550.80-2.41Q546.74 0.73 541.07 0.73L541.07 0.73L541.07 0.73Q537.50 0.73 534.34-0.56L534.34-0.56L534.34-0.56Q531.17-1.85 529.16-4.75L529.16-4.75L529.16-4.75Q527.14-7.66 527.14-12.21L527.14-12.21L527.14-33.46L527.14-33.46Q527.14-40.26 530.87-43.76L530.87-43.76L530.87-43.76Q534.60-47.26 541.13-47.26L541.13-47.26L541.13-47.26Q547.67-47.26 551.26-43.56L551.26-43.56L551.26-43.56Q554.86-39.86 554.86-33.40L554.86-33.40L554.86-12.21zM551.23-34.06L551.23-34.06Q551.23-38.87 548.43-41.32L548.43-41.32L548.43-41.32Q545.62-43.76 541.00-43.76L541.00-43.76L541.00-43.76Q536.38-43.76 533.61-41.32L533.61-41.32L533.61-41.32Q530.84-38.87 530.84-34.06L530.84-34.06L530.84-12.28L530.84-12.28Q530.84-7.59 533.71-5.18L533.71-5.18L533.71-5.18Q536.58-2.77 541.00-2.77L541.00-2.77L541.00-2.77Q545.49-2.77 548.36-5.12L548.36-5.12L548.36-5.12Q551.23-7.46 551.23-12.34L551.23-12.34L551.23-34.06" fill="#ffcf00" stroke="none" stroke-width="none" transform="translate(-274.85498046875,17.494398498535165)" style="fill: rgb(255, 207, 0);"></path></g></g>
</g>
</g>
<style id="beat-be12bee2-37e1-4701-8017-54b34aba52dc" data-anikit="">@keyframes beat-be12bee2-37e1-4701-8017-54b34aba52dc
{
  0% {
    animation-timing-function: cubic-bezier(0.1028,0.2484,0.1372,0.849);
    transform: scale(1);
  }
  34% {
    animation-timing-function: cubic-bezier(0.7116,0.2095,0.8159,0.6876);
    transform: scale(1.2);
  }
  68% {
    animation-timing-function: cubic-bezier(0.1475,0.2888,0.294,0.883);
    transform: scale(1.0268);
  }
  84% {
    animation-timing-function: cubic-bezier(0.8176,0.2193,0.867,0.6889);
    transform: scale(1.0932);
  }
  100% {
    transform: scale(1);
  }
}</style></svg>